<?xml version="1.0" standalone="no"?>
<!DOCTYPE svg PUBLIC "-//W3C//DTD SVG 20010904//EN"
 "http://www.w3.org/TR/2001/REC-SVG-20010904/DTD/svg10.dtd">
<svg version="1.0" xmlns="http://www.w3.org/2000/svg"
 width="414.000000pt" height="414.000000pt" viewBox="0 0 414.000000 414.000000"
 preserveAspectRatio="xMidYMid meet">
<metadata>
Created by potrace 1.14, written by Peter Selinger 2001-2017
</metadata>
<g transform="translate(0.000000,414.000000) scale(0.100000,-0.100000)"
fill="#000000" stroke="none">
<path d="M2150 3838 c-14 -5 -43 -11 -65 -13 -104 -11 -175 -25 -204 -39 -17
-9 -31 -14 -31 -11 0 3 -10 -1 -22 -9 -13 -8 -50 -25 -83 -37 -33 -12 -76 -35
-95 -51 -19 -16 -93 -73 -164 -126 -71 -53 -152 -117 -180 -141 -80 -70 -285
-291 -321 -346 -146 -227 -308 -522 -303 -552 1 -10 -1 -24 -5 -30 -4 -7 -10
-25 -12 -40 -2 -16 -11 -48 -19 -72 -9 -24 -16 -68 -16 -98 0 -30 -7 -82 -16
-115 -8 -33 -13 -66 -10 -73 2 -7 2 -16 -2 -20 -4 -3 -8 -27 -9 -53 -7 -148
-26 -194 -157 -397 -151 -232 -204 -388 -212 -623 -4 -111 -1 -150 16 -235 23
-109 75 -225 108 -242 11 -6 28 -17 37 -25 19 -16 53 -36 75 -45 8 -4 26 -12
40 -20 45 -23 214 -77 260 -82 134 -16 431 -15 583 3 86 10 157 21 157 26 0 4
6 5 13 2 29 -11 285 51 465 111 102 35 300 121 357 155 17 10 49 25 72 33 22
8 63 27 89 43 26 16 79 46 118 67 84 45 153 90 266 172 47 34 111 77 143 95
36 22 100 80 175 160 192 204 217 232 263 299 82 118 108 154 116 160 28 21
120 141 155 203 71 127 84 153 91 173 3 11 20 61 37 110 20 57 37 133 45 205
8 63 17 135 22 160 11 63 5 210 -9 220 -4 3 -9 27 -10 53 -2 26 -6 47 -9 47
-4 0 -9 16 -12 36 -8 47 -51 163 -88 238 -16 32 -29 64 -29 70 0 6 -13 26 -30
44 -34 38 -38 70 -11 98 18 18 17 20 -3 64 -20 44 -59 90 -75 90 -5 0 -26 -12
-47 -27 -50 -34 -83 -36 -111 -6 -12 12 -25 23 -28 23 -6 0 -107 78 -143 110
-13 12 -47 37 -75 57 -29 20 -58 42 -64 49 -12 12 -100 56 -173 87 -19 8 -62
20 -95 27 -33 7 -71 15 -85 19 -14 4 -50 9 -80 10 -30 2 -57 4 -60 6 -14 9
-517 12 -540 3z"/>
</g>
</svg>
